<?xml version="1.0" encoding="UTF-8" standalone="no"?>
<svg width="191px" height="68px" viewBox="0 0 191 68" version="1.1" xmlns="http://www.w3.org/2000/svg" xmlns:xlink="http://www.w3.org/1999/xlink" xmlns:sketch="http://www.bohemiancoding.com/sketch/ns">
    <!-- Generator: Sketch 3.3.2 (12043) - http://www.bohemiancoding.com/sketch -->
    <title>Apple App Store - Large</title>
    <desc>Created with Sketch.</desc>
    <defs></defs>
    <g id="Page-2" stroke="none" stroke-width="1" fill="none" fill-rule="evenodd" sketch:type="MSPage">
        <g id="Apple-App-Store---Large" sketch:type="MSLayerGroup" transform="translate(1.000000, 1.000000)">
            <rect id="Rectangle-3" stroke="#FFFFFF" sketch:type="MSShapeGroup" x="0" y="0" width="189" height="65.1126761" rx="10"></rect>
            <path d="M15.9670635,7.32394366 C13.8616801,7.32394366 12.1549296,9.18912823 12.1549296,11.498916 L12.1549296,54.7000276 C12.1549296,57.0058012 13.8597921,58.875 15.9670635,58.875 L34.9497925,58.875 C37.0551759,58.875 38.7619264,57.0098154 38.7619264,54.7000276 L38.7619264,11.498916 C38.7619264,9.19314246 37.0570638,7.32394366 34.9497925,7.32394366 L15.9670635,7.32394366 L15.9670635,7.32394366 Z M14.6493355,14.0847379 L14.6493355,52.1142057 L36.2675204,52.1142057 L36.2675204,14.0847379 L14.6493355,14.0847379 L14.6493355,14.0847379 Z M25.458428,57.1848014 C26.3768429,57.1848014 27.1213653,56.4280738 27.1213653,55.4946029 C27.1213653,54.561132 26.3768429,53.8044043 25.458428,53.8044043 C24.5400131,53.8044043 23.7954907,54.561132 23.7954907,55.4946029 C23.7954907,56.4280738 24.5400131,57.1848014 25.458428,57.1848014 L25.458428,57.1848014 Z M22.1325534,10.7043408 C22.1325534,11.1710762 22.4183707,11.5494401 22.7946669,11.5494401 L28.1221891,11.5494401 C28.4878643,11.5494401 28.7843026,11.1574263 28.7843026,10.7043408 C28.7843026,10.2376054 28.4984852,9.85924151 28.1221891,9.85924151 L22.7946669,9.85924151 C22.4289917,9.85924151 22.1325534,10.2512553 22.1325534,10.7043408 Z" id="iPhone-Vector" fill="#FFFFFF" sketch:type="MSShapeGroup"></path>
            <text id="Coming-soon-on-the" sketch:type="MSTextLayer" font-family="Helvetica Neue" font-size="13" font-weight="normal" letter-spacing="0.25999999" fill="#FDFDFD">
                <tspan x="52.4409534" y="23.81961">Coming soon on the</tspan>
            </text>
            <text id="App--Store" sketch:type="MSTextLayer" font-family="Helvetica Neue" font-size="24" font-weight="normal" letter-spacing="-0.849776685" fill="#FDFDFD">
                <tspan x="58.1029252" y="51.1722644">App  Store</tspan>
            </text>
        </g>
    </g>
</svg>