<?xml version="1.0" encoding="UTF-8" standalone="no"?>
<svg width="248px" height="331px" viewBox="0 0 248 331" version="1.1" xmlns="http://www.w3.org/2000/svg" xmlns:xlink="http://www.w3.org/1999/xlink" xmlns:sketch="http://www.bohemiancoding.com/sketch/ns">
    <!-- Generator: Sketch 3.3.2 (12043) - http://www.bohemiancoding.com/sketch -->
    <title>Rectangle 21 + Group</title>
    <desc>Created with Sketch.</desc>
    <defs>
        <filter x="-50%" y="-50%" width="200%" height="200%" filterUnits="objectBoundingBox" id="filter-1">
            <feOffset dx="2" dy="10" in="SourceAlpha" result="shadowOffsetOuter1"></feOffset>
            <feGaussianBlur stdDeviation="3" in="shadowOffsetOuter1" result="shadowBlurOuter1"></feGaussianBlur>
            <feColorMatrix values="0 0 0 0 0.40710034   0 0 0 0 0.390065543   0 0 0 0 0.390065543  0 0 0 0.35 0" in="shadowBlurOuter1" type="matrix" result="shadowMatrixOuter1"></feColorMatrix>
            <feMerge>
                <feMergeNode in="shadowMatrixOuter1"></feMergeNode>
                <feMergeNode in="SourceGraphic"></feMergeNode>
            </feMerge>
        </filter>
        <linearGradient x1="50%" y1="0%" x2="50%" y2="100%" id="linearGradient-2">
            <stop stop-color="#FBD451" offset="0%"></stop>
            <stop stop-color="#E1A23A" offset="100%"></stop>
        </linearGradient>
        <filter x="-50%" y="-50%" width="200%" height="200%" filterUnits="objectBoundingBox" id="filter-3">
            <feOffset dx="2" dy="2" in="SourceAlpha" result="shadowOffsetOuter1"></feOffset>
            <feGaussianBlur stdDeviation="3" in="shadowOffsetOuter1" result="shadowBlurOuter1"></feGaussianBlur>
            <feColorMatrix values="0 0 0 0 0.388552296   0 0 0 0 0.373980052   0 0 0 0 0.373980052  0 0 0 0.35 0" in="shadowBlurOuter1" type="matrix" result="shadowMatrixOuter1"></feColorMatrix>
            <feMerge>
                <feMergeNode in="shadowMatrixOuter1"></feMergeNode>
                <feMergeNode in="SourceGraphic"></feMergeNode>
            </feMerge>
        </filter>
        <filter x="-50%" y="-50%" width="200%" height="200%" filterUnits="objectBoundingBox" id="filter-4">
            <feMorphology radius="1" in="SourceAlpha" operator="dilate" result="shadowSpreadOuter1"></feMorphology>
            <feOffset dx="-3" dy="1" in="shadowSpreadOuter1" result="shadowOffsetOuter1"></feOffset>
            <feGaussianBlur stdDeviation="3" in="shadowOffsetOuter1" result="shadowBlurOuter1"></feGaussianBlur>
            <feColorMatrix values="0 0 0 0 0.261479592   0 0 0 0 0.260917303   0 0 0 0 0.260917303  0 0 0 0.35 0" in="shadowBlurOuter1" type="matrix" result="shadowMatrixOuter1"></feColorMatrix>
            <feMerge>
                <feMergeNode in="shadowMatrixOuter1"></feMergeNode>
                <feMergeNode in="SourceGraphic"></feMergeNode>
            </feMerge>
        </filter>
        <linearGradient x1="50%" y1="0%" x2="50%" y2="100%" id="linearGradient-5">
            <stop stop-color="#FBE8A2" offset="0%"></stop>
            <stop stop-color="#F6D37A" offset="100%"></stop>
        </linearGradient>
        <linearGradient x1="0%" y1="100%" x2="100%" y2="0%" id="linearGradient-6">
            <stop stop-color="#E4BE67" offset="0%"></stop>
            <stop stop-color="#F2DC86" offset="100%"></stop>
        </linearGradient>
    </defs>
    <g id="Page-2" stroke="none" stroke-width="1" fill="none" fill-rule="evenodd" sketch:type="MSPage">
        <g id="Rectangle-21-+-Group" sketch:type="MSLayerGroup" transform="translate(4.000000, 0.000000)">
            <g id="Group" transform="translate(0.000000, 0.400870)" sketch:type="MSShapeGroup">
                <g transform="translate(107.842831, 16.165322)" fill="#5EBD22">
                    <path d="M83.8013861,60.9471501 C90.0907867,61.1666451 95.4826054,52.9521321 95.8443501,42.5995219 C96.2060948,32.2469117 91.4007802,23.6765271 85.1113795,23.4570321 C78.8219788,23.2375372 73.4301602,31.4520501 73.0684155,41.8046603 C72.7066708,52.1572706 77.5119854,60.7276552 83.8013861,60.9471501 L83.8013861,60.9471501 Z" id="Oval-21-Copy-5"></path>
                    <ellipse id="Oval-21" cx="14.0760638" cy="44.2117145" rx="12.7354863" ry="21.4359828"></ellipse>
                    <ellipse id="Oval-21-Copy" cx="35.5253039" cy="33.4937231" rx="19.4383738" ry="21.4359828"></ellipse>
                    <ellipse id="Oval-21-Copy-2" cx="51.6122339" cy="30.1443508" rx="19.4383738" ry="30.1443508"></ellipse>
                    <path d="M43.0691714,30.705531 C46.6002485,36.3529429 56.5886948,36.4810436 65.3789908,30.9916521 C74.1692868,25.5022605 78.4327261,16.4740975 74.901649,10.8266856 C71.3705719,5.17927377 61.3821256,5.05117303 52.5918296,10.5405646 C43.8015336,16.0299562 39.5380943,25.0581192 43.0691714,30.705531 L43.0691714,30.705531 Z" id="Oval-21-Copy-3"></path>
                    <path d="M50.4730738,42.7632713 C54.0538844,48.4106832 64.1830131,48.5387839 73.097116,43.0493924 C82.011219,37.5600008 86.3347067,28.5318378 82.7538962,22.8844259 C79.1730856,17.2370141 69.0439569,17.1089133 60.129854,22.5983049 C51.215751,28.0876965 46.8922633,37.1158595 50.4730738,42.7632713 L50.4730738,42.7632713 Z" id="Oval-21-Copy-4"></path>
                </g>
                <g transform="translate(104.565045, 50.895817)" fill="#62C023">
                    <path d="M26.3483815,31.3869247 C29.8283102,36.6745792 39.064844,37.1547852 46.9787571,32.4594948 C54.8926703,27.7642044 58.4871249,19.6714285 55.0071963,14.383774 C51.5272676,9.09611949 42.2907338,8.6159135 34.3768207,13.3112039 C26.4629075,18.0064943 22.8684529,26.0992702 26.3483815,31.3869247 L26.3483815,31.3869247 Z" id="Oval-14-Copy-3"></path>
                    <path d="M21.7208689,28.3797638 C26.1643591,31.4601442 33.9231263,28.4984884 39.0505607,21.7647204 C44.177995,15.0309524 44.7324413,7.07501316 40.2889511,3.99463279 C35.845461,0.914252416 28.0866937,3.87590826 22.9592594,10.6096763 C17.831825,17.3434443 17.2773787,25.2993835 21.7208689,28.3797638 L21.7208689,28.3797638 Z" id="Oval-14-Copy-2"></path>
                    <ellipse id="Oval-14-Copy" cx="23.3999321" cy="15.0708398" rx="12.8699626" ry="15.0708398"></ellipse>
                    <ellipse id="Oval-14" cx="11.1149677" cy="18.4199153" rx="11.1149677" ry="15.0708398"></ellipse>
                </g>
                <g id="Oval-18-Copy-2-+-Oval-18-Copy-+-Oval-18" transform="translate(141.324706, 49.285270)" fill="#5BBC21">
                    <path d="M44.8810832,31.4379297 C53.9884731,33.5733077 62.886582,28.6394223 64.7555657,20.4177881 C66.6245494,12.196154 60.7566617,3.8001367 51.6492718,1.66475867 C42.5418819,-0.470619359 33.643773,4.46326608 31.7747893,12.6849002 C29.9058056,20.9065344 35.7736933,29.3025517 44.8810832,31.4379297 L44.8810832,31.4379297 Z" id="Oval-18-Copy-2"></path>
                    <ellipse id="Oval-18-Copy" cx="36.3555882" cy="30.5563277" rx="18.8046146" ry="19.0977048"></ellipse>
                    <ellipse id="Oval-18" cx="15.6705122" cy="43.2881309" rx="15.6705122" ry="19.0977048"></ellipse>
                </g>
                <g id="Oval-11-+-Rectangle-16-+-Group-+-Rectangle-9-+-Rectangle-7-+-Oval-1-+-Rectangle-8-Copy">
                    <g id="Oval-11-+-Rectangle-16" transform="translate(78.232018, 60.956756)">
                        <ellipse id="Oval-11" fill="#FAF10E" cx="37.7900428" cy="39.0918325" rx="37.7900428" ry="39.0918325"></ellipse>
                        <path d="M42.0584347,10.1446868 C44.1982813,7.59758266 48.0091404,7.27276657 50.5586162,9.409459 L50.5586162,9.409459 C53.1132902,11.550508 53.4445545,15.3569823 51.3097277,17.8981112 L47.8459271,22.0211454 C45.7060805,24.5682496 41.8952214,24.8930656 39.3457456,22.7563732 L39.3457456,22.7563732 C36.7910716,20.6153242 36.4598074,16.8088499 38.5946341,14.267721 L42.0584347,10.1446868 L42.0584347,10.1446868 Z" id="Rectangle-16" fill="#FCF960"></path>
                    </g>
                    <g id="Group-+-Rectangle-9-+-Rectangle-7-+-Oval-1-+-Rectangle-8-Copy">
                        <g id="Group" transform="translate(40.625175, 0.000000)">
                            <g id="Rectangle-9-+-Rectangle-7-+-Oval-1-+-Rectangle-8-Copy-2" transform="translate(0.480000, 0.000000)">
                                <rect id="Rectangle-9" fill="#FDEA7A" filter="url(#filter-1)" x="0.48" y="0" width="69.7557775" height="193.540049" rx="40"></rect>
                                <rect id="Rectangle-7" fill="url(#linearGradient-2)" x="0.48" y="4.1105936" width="69.7557775" height="159.926298" rx="40"></rect>
                            </g>
                            <g id="Oval-1-+-Rectangle-8-Copy-2" transform="translate(9.008744, 15.814868)">
                                <path d="M4.02350308,29.2490023 C29.6263797,25.813367 52.0437709,17.3651392 52.3168331,6.36488726 C43.8237697,7.25041323 36.8052876,9.04715524 29.5108072,11.5933309 C17.2611653,15.8691309 6.03731104,22.1968925 4.02350308,29.2490023 Z" id="Oval-1" fill="#FFEBAC"></path>
                                <path d="M4.73218137,28.4458145 C5.13123946,27.6980799 5.68166125,26.8863226 6.07452014,26.3326809 C6.52761737,25.6941475 7.39170108,24.6812375 8.27351364,23.8203749 C9.32990872,22.7890774 10.3820083,21.9545957 10.3820083,21.9545957 C10.3820083,21.9545957 12.7206624,20.0672896 14.0409578,19.182092 C25.9536987,11.1951447 43.4024543,6.89869894 43.4024543,6.89869894 C43.4024543,6.89869894 46.6410849,6.14558744 48.27413,5.82537015 C49.5898404,5.56737776 52.248721,5.1640699 52.248721,5.1640699 L3.81132698,30.4443375 C3.81132698,30.4443375 4.16775072,29.5034157 4.73218137,28.4458145 L4.73218137,28.4458145 Z" id="Rectangle-8" fill="#C98B5A"></path>
                            </g>
                            <g id="Oval-1-+-Rectangle-8-Copy-3" transform="translate(10.350201, 51.398319)">
                                <path d="M4.02350308,29.2490023 C29.6263797,25.813367 52.0437709,17.3651392 52.3168331,6.36488726 C43.8237697,7.25041323 36.8052876,9.04715524 29.5108072,11.5933309 C17.2611653,15.8691309 6.03731104,22.1968925 4.02350308,29.2490023 Z" id="Oval-1" fill="#FFEBAC"></path>
                                <path d="M4.73218137,28.4458145 C5.13123946,27.6980799 5.68166125,26.8863226 6.07452014,26.3326809 C6.52761737,25.6941475 7.39170108,24.6812375 8.27351364,23.8203749 C9.32990872,22.7890774 10.3820083,21.9545957 10.3820083,21.9545957 C10.3820083,21.9545957 12.7206624,20.0672896 14.0409578,19.182092 C25.9536987,11.1951447 43.4024543,6.89869894 43.4024543,6.89869894 C43.4024543,6.89869894 46.6410849,6.14558744 48.27413,5.82537015 C49.5898404,5.56737776 52.248721,5.1640699 52.248721,5.1640699 L3.81132698,30.4443375 C3.81132698,30.4443375 4.16775072,29.5034157 4.73218137,28.4458145 L4.73218137,28.4458145 Z" id="Rectangle-8" fill="#C98B5A"></path>
                            </g>
                            <g id="Oval-1-+-Rectangle-8-Copy-4" transform="translate(10.350201, 85.663866)">
                                <path d="M4.02350308,29.2490023 C29.6263797,25.813367 52.0437709,17.3651392 52.3168331,6.36488726 C43.8237697,7.25041323 36.8052876,9.04715524 29.5108072,11.5933309 C17.2611653,15.8691309 6.03731104,22.1968925 4.02350308,29.2490023 Z" id="Oval-1" fill="#FFEBAC"></path>
                                <path d="M4.73218137,28.4458145 C5.13123946,27.6980799 5.68166125,26.8863226 6.07452014,26.3326809 C6.52761737,25.6941475 7.39170108,24.6812375 8.27351364,23.8203749 C9.32990872,22.7890774 10.3820083,21.9545957 10.3820083,21.9545957 C10.3820083,21.9545957 12.7206624,20.0672896 14.0409578,19.182092 C25.9536987,11.1951447 43.4024543,6.89869894 43.4024543,6.89869894 C43.4024543,6.89869894 46.6410849,6.14558744 48.27413,5.82537015 C49.5898404,5.56737776 52.248721,5.1640699 52.248721,5.1640699 L3.81132698,30.4443375 C3.81132698,30.4443375 4.16775072,29.5034157 4.73218137,28.4458145 L4.73218137,28.4458145 Z" id="Rectangle-8" fill="#C98B5A"></path>
                            </g>
                        </g>
                        <g id="Rectangle-9-+-Rectangle-7-+-Oval-1-+-Rectangle-8-Copy" transform="translate(0.000000, 38.219263)">
                            <rect id="Rectangle-9" fill="#FDEA7A" filter="url(#filter-3)" x="0" y="0" width="69.7557775" height="148.540718" rx="40"></rect>
                            <g id="Rectangle-7-+-Oval-1-+-Rectangle-8" transform="translate(0.000000, 3.656125)">
                                <rect id="Rectangle-7" fill="url(#linearGradient-2)" x="0" y="0" width="69.7557775" height="175.57904" rx="40"></rect>
                                <g id="Oval-1-+-Rectangle-8" transform="translate(6.707286, 15.843210)">
                                    <path d="M4.02350308,29.2490023 C29.6263797,25.813367 52.0437709,17.3651392 52.3168331,6.36488726 C43.8237697,7.25041323 36.8052876,9.04715524 29.5108072,11.5933309 C17.2611653,15.8691309 6.03731104,22.1968925 4.02350308,29.2490023 Z" id="Oval-1" fill="#FFEBAC"></path>
                                    <path d="M4.73218137,28.4458145 C5.13123946,27.6980799 5.68166125,26.8863226 6.07452014,26.3326809 C6.52761737,25.6941475 7.39170108,24.6812375 8.27351364,23.8203749 C9.32990872,22.7890774 10.3820083,21.9545957 10.3820083,21.9545957 C10.3820083,21.9545957 12.7206624,20.0672896 14.0409578,19.182092 C25.9536987,11.1951447 43.4024543,6.89869894 43.4024543,6.89869894 C43.4024543,6.89869894 46.6410849,6.14558744 48.27413,5.82537015 C49.5898404,5.56737776 52.248721,5.1640699 52.248721,5.1640699 L3.81132698,30.4443375 C3.81132698,30.4443375 4.16775072,29.5034157 4.73218137,28.4458145 L4.73218137,28.4458145 Z" id="Rectangle-8" fill="#C98B5A"></path>
                                </g>
                                <g id="Oval-1-+-Rectangle-8-Copy" transform="translate(6.707286, 40.217378)">
                                    <path d="M4.02350308,29.2490023 C29.6263797,25.813367 52.0437709,17.3651392 52.3168331,6.36488726 C43.8237697,7.25041323 36.8052876,9.04715524 29.5108072,11.5933309 C17.2611653,15.8691309 6.03731104,22.1968925 4.02350308,29.2490023 Z" id="Oval-1" fill="#FFEBAC"></path>
                                    <path d="M4.73218137,28.4458145 C5.13123946,27.6980799 5.68166125,26.8863226 6.07452014,26.3326809 C6.52761737,25.6941475 7.39170108,24.6812375 8.27351364,23.8203749 C9.32990872,22.7890774 10.3820083,21.9545957 10.3820083,21.9545957 C10.3820083,21.9545957 12.7206624,20.0672896 14.0409578,19.182092 C25.9536987,11.1951447 43.4024543,6.89869894 43.4024543,6.89869894 C43.4024543,6.89869894 46.6410849,6.14558744 48.27413,5.82537015 C49.5898404,5.56737776 52.248721,5.1640699 52.248721,5.1640699 L3.81132698,30.4443375 C3.81132698,30.4443375 4.16775072,29.5034157 4.73218137,28.4458145 L4.73218137,28.4458145 Z" id="Rectangle-8" fill="#C98B5A"></path>
                                </g>
                            </g>
                        </g>
                    </g>
                </g>
                <g id="Oval-13-+-Oval-12-+-Rectangle-17" transform="translate(122.641025, 89.617583)">
                    <ellipse id="Oval-12" fill="#FBAA88" filter="url(#filter-4)" cx="36.9241795" cy="30.9707822" rx="35.6054588" ry="30.9707822"></ellipse>
                    <ellipse id="Oval-13" fill="#F56951" cx="37.5835398" cy="36.2424047" rx="37.5835398" ry="32.2886878"></ellipse>
                    <path d="M14.1090296,16.9263566 C16.008688,14.6600803 19.3840659,14.3645839 21.637883,16.2577254 L21.637883,16.2577254 C23.8962955,18.1547269 24.1934988,21.5221243 22.2874647,23.7960067 L20.588584,25.822757 C18.6889256,28.0890333 15.3135477,28.3845297 13.0597306,26.4913882 L13.0597306,26.4913882 C10.8013181,24.5943867 10.5041148,21.2269893 12.4101489,18.9531069 L14.1090296,16.9263566 L14.1090296,16.9263566 Z" id="Rectangle-17" fill="#FF836D"></path>
                </g>
                <g transform="translate(167.873865, 44.563934)">
                    <g transform="translate(0.000000, 0.000000)">
                        <path d="M0,65.5623379 C0,46.0025401 15.8540569,30.146191 35.4108935,30.146191 L35.4108935,30.146191 L35.4108935,30.146191 C54.9677899,30.146191 70.8217869,46.0082232 70.8217869,65.5623379 L70.8217869,96.9649526 C70.8217869,116.52475 54.9720899,132.3811 35.4108935,132.3811 L35.4108935,132.3811 C15.853997,132.3811 0,116.519067 0,96.9649526 L0,65.5623379 Z" id="Rectangle-18" fill="#CF88EB"></path>
                        <path d="M15.7084224,51.5205964 C17.9210065,49.0855698 21.7087237,48.8907618 24.157374,51.075531 L24.157374,51.075531 C26.611017,53.2647549 26.8169964,57.0018261 24.5938496,59.4484772 L20.1611428,64.3268269 C17.9485587,66.7618535 14.1608415,66.9566614 11.7121912,64.7718922 L11.7121912,64.7718922 C9.25854824,62.5826684 9.05256885,58.8455972 11.2757156,56.3989461 L15.7084224,51.5205964 L15.7084224,51.5205964 Z" id="Rectangle-21" fill="#F2BEFE"></path>
                        <rect id="Rectangle-20" fill="#F6F6F6" x="22.5845411" y="19.7467199" width="26.5700483" height="13.1644799"></rect>
                        <rect id="Rectangle-21" fill="#ADBAC5" x="14.6135266" y="9.35392557e-15" width="42.5120773" height="19.7467199" rx="2"></rect>
                    </g>
                    <rect id="Rectangle-22" fill="#D8D8D8" x="22.5845411" y="23.6960639" width="26.5700483" height="5.26579197"></rect>
                    <rect id="Rectangle-23" fill="#D8D8D8" x="18.5990338" y="9.35392557e-15" width="2.65700483" height="19.7467199"></rect>
                    <rect id="Rectangle-23-Copy" fill="#D8D8D8" x="50.4830918" y="9.35392557e-15" width="2.65700483" height="19.7467199"></rect>
                    <rect id="Rectangle-23-Copy-2" fill="#D8D8D8" x="26.5700483" y="9.35392557e-15" width="2.65700483" height="19.7467199"></rect>
                    <rect id="Rectangle-23-Copy-3" fill="#D8D8D8" x="34.5410628" y="9.35392557e-15" width="2.65700483" height="19.7467199"></rect>
                    <rect id="Rectangle-23-Copy-4" fill="#D8D8D8" x="42.5120773" y="9.35392557e-15" width="2.65700483" height="19.7467199"></rect>
                </g>
                <g id="Group-+-Group" transform="translate(0.000000, 113.408123)">
                    <g id="Group" transform="translate(14.505495, 1.303542)">
                        <polygon id="Triangle-1-Copy" fill="#FBE8A2" points="17.1428571 0 34.2857143 13.0354164 0 13.0354164 "></polygon>
                        <polygon id="Triangle-1-Copy-2" fill="#FBE8A2" points="46.1538462 0 63.2967033 13.0354164 29.010989 13.0354164 "></polygon>
                        <polygon id="Triangle-1-Copy-3" fill="#FBE8A2" points="75.1648352 0 92.3076923 13.0354164 58.021978 13.0354164 "></polygon>
                        <polygon id="Triangle-1-Copy-4" fill="#FBE8A2" points="106.813187 0 123.956044 13.0354164 89.6703297 13.0354164 "></polygon>
                        <polygon id="Triangle-1-Copy-5" fill="#EBCE78" points="137.142857 0 154.285714 13.0354164 120 13.0354164 "></polygon>
                        <polygon id="Triangle-1-Copy-6" fill="#EED47E" points="167.472527 0 184.615385 13.0354164 150.32967 13.0354164 "></polygon>
                        <path d="M106.813187,0 L125.569311,14.2449234 L106.813187,15.6424997 L106.813187,0 Z" id="Rectangle-28" fill="#EBCE78"></path>
                        <polygon id="Triangle-1-Copy-7" fill="#F1D983" points="195.164835 0 212.307692 13.0354164 178.021978 13.0354164 "></polygon>
                    </g>
                    <g id="Group">
                        <rect id="Rectangle-1-Copy-2" fill="url(#linearGradient-5)" x="15.8241758" y="13.0354164" width="105.494505" height="95.1585396"></rect>
                        <rect id="Path" fill="#FFE694" x="15.8241758" y="108.193956" width="105.494505" height="104.283331"></rect>
                        <rect id="Path" fill="#F3D686" x="121.318681" y="108.193956" width="104.175824" height="104.283331"></rect>
                        <rect id="Path" fill="url(#linearGradient-6)" x="121.318681" y="13.0354164" width="104.175824" height="95.1585396"></rect>
                        <path d="M0,1.30354164 L15.8241758,13.0892313 L15.8241758,212.477287 L0,200.13897 L0,1.30354164 Z" id="Rectangle-5" fill="#CCAA4B"></path>
                        <path d="M225.494505,13.1577884 L240,0 L240,201.049383 L225.494505,212.477287 L225.494505,13.1577884 Z" id="Rectangle-6" fill="#D1AD3E"></path>
                    </g>
                </g>
            </g>
        </g>
    </g>
</svg>